<?xml version="1.0" encoding="UTF-8"?>
<svg version="1.1" xmlns="http://www.w3.org/2000/svg" width="140" height="124">
<path d="M0 0 C1.1808744 0.42750549 1.1808744 0.42750549 2.38560486 0.86364746 C6.15196797 2.33956497 9.85244431 3.93263495 13.5390625 5.59692383 C14.23769409 5.90843384 14.93632568 6.21994385 15.65612793 6.54089355 C18.22203802 7.6864614 20.78466679 8.83936771 23.34765625 9.99145508 C29.10203125 12.56958008 34.85640625 15.14770508 40.78515625 17.80395508 C40.78515625 33.64395508 40.78515625 49.48395508 40.78515625 65.80395508 C46.23015625 66.79395508 46.23015625 66.79395508 51.78515625 67.80395508 C51.78515625 75.39395508 51.78515625 82.98395508 51.78515625 90.80395508 C50.15449219 90.74852539 48.52382812 90.6930957 46.84375 90.63598633 C32.48789022 90.47100173 24.10538583 91.77222724 13.43945312 101.40454102 C10.74025515 103.68786492 7.87380335 105.3279464 4.78515625 107.05395508 C3.79515625 107.61598633 2.80515625 108.17801758 1.78515625 108.75708008 C-2.14348988 110.12801388 -4.19081628 109.89095402 -8.21484375 108.80395508 C-11.35707516 107.28689152 -14.27374844 105.48918271 -17.21484375 103.61645508 C-17.983125 103.1465918 -18.75140625 102.67672852 -19.54296875 102.19262695 C-23.26004853 99.87577365 -26.41851783 97.64174874 -29.46875 94.49536133 C-34.22175027 90.27527321 -40.108262 90.91521072 -46.15234375 90.92895508 C-47.31314453 90.90833008 -48.47394531 90.88770508 -49.66992188 90.86645508 C-52.51791953 90.81957446 -55.36646346 90.80821593 -58.21484375 90.80395508 C-58.21484375 83.21395508 -58.21484375 75.62395508 -58.21484375 67.80395508 C-52.76984375 66.81395508 -52.76984375 66.81395508 -47.21484375 65.80395508 C-47.21484375 49.96395508 -47.21484375 34.12395508 -47.21484375 17.80395508 C-35.26640427 12.27866515 -35.26640427 12.27866515 -29.78515625 9.79614258 C-25.74058258 7.96283801 -21.71618633 6.0961 -17.70703125 4.18676758 C-16.06444455 3.43276224 -14.42125276 2.68007311 -12.77734375 1.92895508 C-12.04088623 1.56543945 -11.30442871 1.20192383 -10.5456543 0.82739258 C-6.58808376 -0.93574281 -4.1359515 -1.49980624 0 0 Z " fill="#EAE49B" transform="translate(73.21484375,7.196044921875)"/>
<path d="M0 0 C1.04911812 0.46043701 1.04911812 0.46043701 2.11943054 0.93017578 C3.587299 1.57590044 5.05373836 2.22488259 6.51879883 2.87695312 C8.76917945 3.87831984 11.02377164 4.86965827 13.27929688 5.859375 C14.70728499 6.48900817 16.13502835 7.11919679 17.5625 7.75 C18.23847733 8.04793457 18.91445465 8.34586914 19.61091614 8.65283203 C24.3321125 10.75789375 24.3321125 10.75789375 25.44921875 11.875 C25.54233764 13.37918739 25.56667903 14.88771356 25.56274414 16.39477539 C25.56262329 17.36918579 25.56250244 18.34359619 25.56237793 19.34753418 C25.55726196 20.37882446 25.552146 21.41011475 25.546875 22.47265625 C25.54586792 23.41524292 25.54486084 24.35782959 25.54382324 25.32897949 C25.53857352 28.86516529 25.52461239 32.40133381 25.51171875 35.9375 C25.49109375 43.836875 25.47046875 51.73625 25.44921875 59.875 C0.69921875 59.875 -24.05078125 59.875 -49.55078125 59.875 C-49.55078125 44.035 -49.55078125 28.195 -49.55078125 11.875 C-30.05308186 2.77607362 -30.05308186 2.77607362 -23.48828125 -0.125 C-22.60462891 -0.53105469 -21.72097656 -0.93710937 -20.81054688 -1.35546875 C-19.95009766 -1.73316406 -19.08964844 -2.11085938 -18.203125 -2.5 C-17.0737854 -3.00660156 -17.0737854 -3.00660156 -15.92163086 -3.5234375 C-10.23624215 -4.96600755 -5.12239927 -2.29199622 0 0 Z " fill="#19263D" transform="translate(81.55078125,17.125)"/>
<path d="M0 0 C1.32 0.33 2.64 0.66 4 1 C3.01 2.485 3.01 2.485 2 4 C1.83300768 7.12521833 1.83300768 7.12521833 2 10 C3.65 10 5.3 10 7 10 C6.67 7.36 6.34 4.72 6 2 C6.99 1.67 7.98 1.34 9 1 C9 3.97 9 6.94 9 10 C10.32 10 11.64 10 13 10 C13.11320856 4.91696314 13.11320856 4.91696314 12 0 C13.32 0 14.64 0 16 0 C18.67927341 4.01891012 18.15601248 6.24161923 18 11 C17.01 11 16.02 11 15 11 C15.061875 11.763125 15.12375 12.52625 15.1875 13.3125 C15 16 15 16 13.5 17.8125 C13.005 18.204375 12.51 18.59625 12 19 C15.23861295 19 17.09740189 18.3749149 20 17 C20.33 16.34 20.66 15.68 21 15 C23.97 15 26.94 15 30 15 C30 15.66 30 16.32 30 17 C30.99 17 31.98 17 33 17 C33.268125 17.969375 33.53625 18.93875 33.8125 19.9375 C34.4003125 21.4534375 34.4003125 21.4534375 35 23 C35.99 23.33 36.98 23.66 38 24 C37.67 24.66 37.34 25.32 37 26 C36.34 26 35.68 26 35 26 C34.731875 26.94875 34.46375 27.8975 34.1875 28.875 C33 32 33 32 30 34 C27.3125 34.125 27.3125 34.125 25 34 C26.32 35.98 27.64 37.96 29 40 C28.236875 39.690625 27.47375 39.38125 26.6875 39.0625 C24.81210323 38.32106407 22.91315348 37.63771783 21 37 C22.12029017 38.48273699 23.24638618 39.96108886 24.375 41.4375 C25.00148437 42.26121094 25.62796875 43.08492187 26.2734375 43.93359375 C27.83753904 46.08528092 27.83753904 46.08528092 30 47 C32.11683841 46.10836423 32.11683841 46.10836423 34 45 C34.99 45.66 35.98 46.32 37 47 C36.67 48.65 36.34 50.3 36 52 C35.01 52.33 34.02 52.66 33 53 C31.41540185 51.58474822 29.83237609 50.1677358 28.25 48.75 C27.36828125 47.96109375 26.4865625 47.1721875 25.578125 46.359375 C23.32133835 44.29407328 21.14260074 42.18264936 19 40 C18.690625 41.11375 18.38125 42.2275 18.0625 43.375 C17 47 17 47 16 49 C14.68 48.67 13.36 48.34 12 48 C12.495 47.01 12.495 47.01 13 46 C13.039992 44.00039988 13.04346799 41.99952758 13 40 C11.68 39.67 10.36 39.34 9 39 C9 42.3 9 45.6 9 49 C8.34 49 7.68 49 7 49 C5.875 42.375 5.875 42.375 7 39 C5.35 39.66 3.7 40.32 2 41 C1.73781251 44.14624993 1.75245633 45.61837017 3.5 48.3125 C3.995 48.869375 4.49 49.42625 5 50 C3.35 50 1.7 50 0 50 C0 49.01 0 48.02 0 47 C-0.66 47 -1.32 47 -2 47 C-2.33 45.68 -2.66 44.36 -3 43 C-4.32 44.98 -5.64 46.96 -7 49 C-7.33 48.34 -7.66 47.68 -8 47 C-7.22265625 44.8359375 -7.22265625 44.8359375 -6.0625 42.375 C-5.68222656 41.55773438 -5.30195312 40.74046875 -4.91015625 39.8984375 C-4.60980469 39.27195313 -4.30945313 38.64546875 -4 38 C-5.53547475 39.40078398 -7.05305148 40.82120903 -8.5625 42.25 C-9.40941406 43.03890625 -10.25632812 43.8278125 -11.12890625 44.640625 C-13.28740637 46.80181321 -13.28740637 46.80181321 -12.77734375 49.296875 C-12.52082031 49.85890625 -12.26429687 50.4209375 -12 51 C-15 53 -15 53 -18.1875 52.625 C-19.115625 52.41875 -20.04375 52.2125 -21 52 C-21 49 -21 49 -19.8125 47.4375 C-18 46 -18 46 -15.75 45.3125 C-11.46864727 43.26912711 -8.94115645 39.64466073 -6 36 C-8.53594422 35.35763528 -11.07131954 34.75987665 -13.625 34.1875 C-17 33 -17 33 -18.4375 31.0625 C-19 29 -19 29 -19 26 C-19.99 26 -20.98 26 -22 26 C-21.71125 25.443125 -21.4225 24.88625 -21.125 24.3125 C-19.9586747 21.91505355 -18.9660119 19.48403061 -18 17 C-16.68 17 -15.36 17 -14 17 C-14 16.34 -14 15.68 -14 15 C-10.535 14.505 -10.535 14.505 -7 14 C-6.01 15.485 -6.01 15.485 -5 17 C-2.02496878 18.15835673 -2.02496878 18.15835673 1 19 C1.66 19.33 2.32 19.66 3 20 C2.505 19.05125 2.01 18.1025 1.5 17.125 C0 14 0 14 0 12 C-0.66 11.67 -1.32 11.34 -2 11 C-2 8.36 -2 5.72 -2 3 C-1.34 3 -0.68 3 0 3 C0 2.01 0 1.02 0 0 Z " fill="#5E5E5B" transform="translate(62,21)"/>
<path d="M0 0 C2.81376295 1.14281146 5.62602416 2.28908741 8.4375 3.4375 C9.23994141 3.76298828 10.04238281 4.08847656 10.86914062 4.42382812 C11.63291016 4.73642578 12.39667969 5.04902344 13.18359375 5.37109375 C13.89056396 5.65911865 14.59753418 5.94714355 15.32592773 6.24389648 C17 7 17 7 18 8 C18.09311889 9.50418739 18.11746028 11.01271356 18.11352539 12.51977539 C18.11344986 13.48069595 18.11337433 14.44161652 18.11329651 15.43165588 C18.10813522 16.476436 18.10297394 17.52121613 18.09765625 18.59765625 C18.0962413 19.66165146 18.09482635 20.72564667 18.09336853 21.82188416 C18.08775064 25.23545083 18.07519511 28.648953 18.0625 32.0625 C18.05748731 34.37044176 18.052924 36.67838455 18.04882812 38.98632812 C18.03862433 44.65759721 18.01905243 50.32872601 18 56 C8.76 56 -0.48 56 -10 56 C-11.33333333 44 -11.33333333 44 -8 39 C-7.25234375 39.77085938 -6.5046875 40.54171875 -5.734375 41.3359375 C-4.73985349 42.34922356 -3.74504677 43.36222975 -2.75 44.375 C-2.01330078 45.13683594 -2.01330078 45.13683594 -1.26171875 45.9140625 C2.39831544 49.66468433 2.39831544 49.66468433 7 52 C7.99 51.505 7.99 51.505 9 51 C9 49.68 9 48.36 9 47 C6.10813214 45.66695302 6.10813214 45.66695302 3.8125 46.9375 C3.214375 47.288125 2.61625 47.63875 2 48 C0.70291686 46.58829091 -0.58745978 45.17041804 -1.875 43.75 C-2.59429687 42.96109375 -3.31359375 42.1721875 -4.0546875 41.359375 C-5.76935483 39.27973832 -6.92980873 37.45580733 -8 35 C-7.236875 35.309375 -6.47375 35.61875 -5.6875 35.9375 C-3.81210323 36.67893593 -1.91315348 37.36228217 0 38 C-0.66 36.68 -1.32 35.36 -2 34 C-0.906875 33.79375 0.18625 33.5875 1.3125 33.375 C5.20816944 32.35731279 5.20816944 32.35731279 6.8125 29 C7.204375 28.01 7.59625 27.02 8 26 C8.66 25.34 9.32 24.68 10 24 C9.34 23.401875 8.68 22.80375 8 22.1875 C6 20 6 20 6 17 C5.01 17 4.02 17 3 17 C3 16.34 3 15.68 3 15 C0.03 15 -2.94 15 -6 15 C-6.33 15.99 -6.66 16.98 -7 18 C-9.89558441 19.4477922 -11.74188938 20 -15 20 C-15.33 19.34 -15.66 18.68 -16 18 C-15.525625 17.5875 -15.05125 17.175 -14.5625 16.75 C-12.83733482 14.817815 -12.43415125 13.51807725 -12 11 C-11.01 11 -10.02 11 -9 11 C-8.74476562 10.41734375 -8.48953125 9.8346875 -8.2265625 9.234375 C-6.88258913 6.78611777 -5.38189704 5.18256752 -3.375 3.25 C-2.74335937 2.63640625 -2.11171875 2.0228125 -1.4609375 1.390625 C-0.73777344 0.70226562 -0.73777344 0.70226562 0 0 Z " fill="#121F39" transform="translate(89,21)"/>
<path d="M0 0 C0.99 0 1.98 0 3 0 C3 0.99 3 1.98 3 3 C3.99 3 4.98 3 6 3 C6 4.32 6 5.64 6 7 C4.68 7 3.36 7 2 7 C1.34 9.97 0.68 12.94 0 16 C0.99 15.01 1.98 14.02 3 13 C4.32 13 5.64 13 7 13 C7 15.64 7 18.28 7 21 C5.47632812 20.95166016 5.47632812 20.95166016 3.921875 20.90234375 C-6.27150666 20.87248397 -11.52115354 22.92075858 -19.39599609 29.69775391 C-22.38506736 32.12449761 -25.60948388 34.15679589 -28.875 36.1875 C-29.49383057 36.59806641 -30.11266113 37.00863281 -30.75024414 37.43164062 C-33.72693894 39.26493987 -35.45068663 40.08658052 -38.94921875 39.53515625 C-42.74740135 37.62390687 -46.35056298 35.53043678 -49.9375 33.25 C-50.61490234 32.83234375 -51.29230469 32.4146875 -51.99023438 31.984375 C-55.47355435 29.7935237 -58.50896076 27.5700501 -61.484375 24.72265625 C-65.23984606 21.40520788 -68.43009054 21.13772567 -73.3125 21.1875 C-80.88445378 21.05777311 -80.88445378 21.05777311 -83 20 C-83 18.68 -83 17.36 -83 16 C-82.01 16 -81.02 16 -80 16 C-80 15.01 -80 14.02 -80 13 C-79.01 13 -78.02 13 -77 13 C-77 13.99 -77 14.98 -77 16 C-76.34 16 -75.68 16 -75 16 C-74.67 15.01 -74.34 14.02 -74 13 C-74 13.99 -74 14.98 -74 16 C-71.06556598 15.73343428 -71.06556598 15.73343428 -68 15 C-67.34 14.01 -66.68 13.02 -66 12 C-65.67 12.99 -65.34 13.98 -65 15 C-64.34 13.68 -63.68 12.36 -63 11 C-62.01 12.32 -61.02 13.64 -60 15 C-59.67 11.04 -59.34 7.08 -59 3 C-55.04 3 -51.08 3 -47 3 C-47 4.32 -47 5.64 -47 7 C-47.66 7.33 -48.32 7.66 -49 8 C-49.66 8.99 -50.32 9.98 -51 11 C-51 10.01 -51 9.02 -51 8 C-52.98 8 -54.96 8 -57 8 C-57.33 10.31 -57.66 12.62 -58 15 C-56.02 15 -54.04 15 -52 15 C-51.67 14.34 -51.34 13.68 -51 13 C-51 13.99 -51 14.98 -51 16 C-50.34 16 -49.68 16 -49 16 C-49 17.65 -49 19.3 -49 21 C-53.95 21.495 -53.95 21.495 -59 22 C-56.60512849 23.60561826 -54.20914587 25.20953407 -51.8125 26.8125 C-51.13896484 27.26431641 -50.46542969 27.71613281 -49.77148438 28.18164062 C-48.45129253 29.06391517 -47.12729553 29.94052592 -45.79931641 30.81103516 C-44.28918338 31.80891139 -42.80350485 32.84366009 -41.32421875 33.88671875 C-39.07300217 35.17781373 -39.07300217 35.17781373 -36.62890625 34.9609375 C-33.07586593 33.66220359 -30.06046384 31.718015 -26.9375 29.625 C-26.32583984 29.22539063 -25.71417969 28.82578125 -25.08398438 28.4140625 C-21.97863092 26.37292207 -18.94017113 24.27295025 -16 22 C-18.97 21.67 -21.94 21.34 -25 21 C-25.33 19.35 -25.66 17.7 -26 16 C-25.01 15.67 -24.02 15.34 -23 15 C-22.34 14.34 -21.68 13.68 -21 13 C-21 13.99 -21 14.98 -21 16 C-19.35 16 -17.7 16 -16 16 C-16 15.34 -16 14.68 -16 14 C-16.99 14 -17.98 14 -19 14 C-18.67 12.02 -18.34 10.04 -18 8 C-18.66 8 -19.32 8 -20 8 C-20.33 8.99 -20.66 9.98 -21 11 C-21.495 9.515 -21.495 9.515 -22 8 C-24.01508358 7.26676204 -24.01508358 7.26676204 -26 7 C-26 5.68 -26 4.36 -26 3 C-17.42 3 -8.84 3 0 3 C0 2.01 0 1.02 0 0 Z " fill="#F7F09C" transform="translate(107,75)"/>
<path d="M0 0 C24.75 0 49.5 0 75 0 C75 0.33 75 0.66 75 1 C66.42 1 57.84 1 49 1 C49 2.32 49 3.64 49 5 C51.64 5.33 54.28 5.66 57 6 C56.67 7.98 56.34 9.96 56 12 C56.99 12 57.98 12 59 12 C59 12.66 59 13.32 59 14 C55.66666667 14 52.33333333 14 49 14 C49.495 15.98 49.495 15.98 50 18 C53.3 18.33 56.6 18.66 60 19 C56.06988767 23.26082628 51.84177178 26.30926824 46.9375 29.375 C46.23044922 29.83777344 45.52339844 30.30054687 44.79492188 30.77734375 C44.10849609 31.20917969 43.42207031 31.64101562 42.71484375 32.0859375 C42.09730225 32.4782959 41.47976074 32.8706543 40.84350586 33.27490234 C38.47293712 34.20730721 37.36271064 33.86314363 35 33 C27.98593662 29.36270713 20.96309383 25.22647636 15 20 C15 19.67 15 19.34 15 19 C18.63 19 22.26 19 26 19 C26 17.35 26 15.7 26 14 C23.03 13.67 20.06 13.34 17 13 C17.33 10.69 17.66 8.38 18 6 C19.093125 6.020625 20.18625 6.04125 21.3125 6.0625 C24.94384191 6.18544452 24.94384191 6.18544452 28 5 C28 3.68 28 2.36 28 1 C18.76 1 9.52 1 0 1 C0 0.67 0 0.34 0 0 Z " fill="#83795D" transform="translate(32,77)"/>
<path d="M0 0 C1.1808744 0.42750549 1.1808744 0.42750549 2.38560486 0.86364746 C6.15196797 2.33956497 9.85244431 3.93263495 13.5390625 5.59692383 C14.23769409 5.90843384 14.93632568 6.21994385 15.65612793 6.54089355 C18.22203802 7.6864614 20.78466679 8.83936771 23.34765625 9.99145508 C29.10203125 12.56958008 34.85640625 15.14770508 40.78515625 17.80395508 C40.78515625 33.64395508 40.78515625 49.48395508 40.78515625 65.80395508 C46.23015625 66.79395508 46.23015625 66.79395508 51.78515625 67.80395508 C51.78515625 75.39395508 51.78515625 82.98395508 51.78515625 90.80395508 C50.15449219 90.74852539 48.52382812 90.6930957 46.84375 90.63598633 C32.48789022 90.47100173 24.10538583 91.77222724 13.43945312 101.40454102 C10.74025515 103.68786492 7.87380335 105.3279464 4.78515625 107.05395508 C3.79515625 107.61598633 2.80515625 108.17801758 1.78515625 108.75708008 C-2.14348988 110.12801388 -4.19081628 109.89095402 -8.21484375 108.80395508 C-11.35707516 107.28689152 -14.27374844 105.48918271 -17.21484375 103.61645508 C-17.983125 103.1465918 -18.75140625 102.67672852 -19.54296875 102.19262695 C-23.26004853 99.87577365 -26.41851783 97.64174874 -29.46875 94.49536133 C-34.22175027 90.27527321 -40.108262 90.91521072 -46.15234375 90.92895508 C-47.31314453 90.90833008 -48.47394531 90.88770508 -49.66992188 90.86645508 C-52.51791953 90.81957446 -55.36646346 90.80821593 -58.21484375 90.80395508 C-58.21484375 83.21395508 -58.21484375 75.62395508 -58.21484375 67.80395508 C-52.76984375 66.81395508 -52.76984375 66.81395508 -47.21484375 65.80395508 C-47.21484375 49.96395508 -47.21484375 34.12395508 -47.21484375 17.80395508 C-35.26640427 12.27866515 -35.26640427 12.27866515 -29.78515625 9.79614258 C-25.74058258 7.96283801 -21.71618633 6.0961 -17.70703125 4.18676758 C-16.06444455 3.43276224 -14.42125276 2.68007311 -12.77734375 1.92895508 C-12.04088623 1.56543945 -11.30442871 1.20192383 -10.5456543 0.82739258 C-6.58808376 -0.93574281 -4.1359515 -1.49980624 0 0 Z M-9.2331543 3.34863281 C-10.39907356 3.85432045 -10.39907356 3.85432045 -11.58854675 4.370224 C-12.41784195 4.73894119 -13.24713715 5.10765839 -14.1015625 5.48754883 C-14.95917679 5.86250992 -15.81679108 6.23747101 -16.70039368 6.62379456 C-18.50985392 7.41651175 -20.31778124 8.21273595 -22.12426758 9.01220703 C-24.8992405 10.24008195 -27.67861454 11.45749786 -30.45898438 12.6730957 C-32.21510924 13.44397556 -33.9709777 14.21543985 -35.7265625 14.98754883 C-36.56193039 15.35424179 -37.39729828 15.72093475 -38.25798035 16.09873962 C-41.99812444 17.53954744 -41.99812444 17.53954744 -45.21484375 19.80395508 C-45.30811091 21.36942556 -45.33229957 22.9390828 -45.32836914 24.50732422 C-45.32829361 25.50828629 -45.32821808 26.50924835 -45.32814026 27.5405426 C-45.32297897 28.62907028 -45.31781769 29.71759796 -45.3125 30.83911133 C-45.31108505 31.94749863 -45.3096701 33.05588593 -45.30821228 34.19786072 C-45.30259408 37.75408577 -45.2900385 41.31024891 -45.27734375 44.86645508 C-45.27233109 47.27075105 -45.26776778 49.675048 -45.26367188 52.0793457 C-45.25261874 57.98757285 -45.23534191 63.89575345 -45.21484375 69.80395508 C-48.84484375 69.80395508 -52.47484375 69.80395508 -56.21484375 69.80395508 C-56.21484375 76.07395508 -56.21484375 82.34395508 -56.21484375 88.80395508 C-54.52617188 88.78333008 -52.8375 88.76270508 -51.09765625 88.74145508 C-30.77035465 88.80226974 -30.77035465 88.80226974 -25.58984375 93.30395508 C-24.914375 94.01680664 -24.23890625 94.7296582 -23.54296875 95.46411133 C-20.48141602 98.54107456 -17.06665395 100.55472951 -13.33984375 102.74145508 C-12.6957959 103.13075195 -12.05174805 103.52004883 -11.38818359 103.92114258 C-7.06259193 106.72449699 -7.06259193 106.72449699 -2.21484375 107.80395508 C0.27565371 106.6125873 2.46611798 105.39472351 4.78515625 103.92895508 C5.45885254 103.52418945 6.13254883 103.11942383 6.82666016 102.70239258 C11.06589204 100.09796285 14.51598138 97.20737365 18.16015625 93.80395508 C26.878638 86.86056587 39.19833982 88.59910182 49.78515625 88.80395508 C49.78515625 82.53395508 49.78515625 76.26395508 49.78515625 69.80395508 C45.82515625 69.80395508 41.86515625 69.80395508 37.78515625 69.80395508 C37.78515625 53.30395508 37.78515625 36.80395508 37.78515625 19.80395508 C29.15965058 15.49120224 20.57787131 11.35513986 11.78515625 7.42895508 C9.98498047 6.61104492 9.98498047 6.61104492 8.1484375 5.77661133 C6.99730469 5.26227539 5.84617188 4.74793945 4.66015625 4.21801758 C3.62632813 3.75347168 2.5925 3.28892578 1.52734375 2.81030273 C-2.54735881 1.31493913 -5.38169527 1.65751565 -9.2331543 3.34863281 Z " fill="#132037" transform="translate(73.21484375,7.196044921875)"/>
<path d="M0 0 C7.45454545 0 7.45454545 0 10 2 C10.268125 2.99 10.53625 3.98 10.8125 5 C11.204375 5.99 11.59625 6.98 12 8 C16.04350623 9.67843655 19.64046453 10.26421427 24 10 C21.53160939 15.42316361 17.65583707 20.76060937 12.1875 23.3125 C11.465625 23.539375 10.74375 23.76625 10 24 C9.34 24.99 8.68 25.98 8 27 C12.53140653 27.93380961 12.53140653 27.93380961 17 27 C16.34 26.67 15.68 26.34 15 26 C15.51776621 21.89552608 17.64627444 20.04300477 20.5625 17.25 C21.38878906 16.45078125 22.21507813 15.6515625 23.06640625 14.828125 C23.70449219 14.22484375 24.34257813 13.6215625 25 13 C25.33 13.66 25.66 14.32 26 15 C25.06421005 17.35981813 24.06652192 19.69631264 23 22 C24.32 20.68 25.64 19.36 27 18 C27 19.65 27 21.3 27 23 C27.66 23 28.32 23 29 23 C29 23.99 29 24.98 29 26 C30.32 25.67 31.64 25.34 33 25 C32.2265625 24.4740625 32.2265625 24.4740625 31.4375 23.9375 C30 22 30 22 30.3125 18.3125 C30.539375 17.219375 30.76625 16.12625 31 15 C32.65 15 34.3 15 36 15 C36 18.3 36 21.6 36 25 C36.66 25 37.32 25 38 25 C38 21.7 38 18.4 38 15 C39.32 14.67 40.64 14.34 42 14 C43.36952673 16.73905345 43.12621361 18.97087332 43 22 C42.67 22.66 42.34 23.32 42 24 C42.99 24.33 43.98 24.66 45 25 C45.495 28.465 45.495 28.465 46 32 C30.82 32 15.64 32 0 32 C0 21.44 0 10.88 0 0 Z " fill="#121F39" transform="translate(33,45)"/>
<path d="M0 0 C0.33 0.66 0.66 1.32 1 2 C2.97888961 2.72693904 4.97954558 3.39816251 7 4 C7 4.99 7 5.98 7 7 C4.525 6.505 4.525 6.505 2 6 C2 8.31 2 10.62 2 13 C4.21081851 13.10540926 4.21081851 13.10540926 7 12 C7 12.66 7 13.32 7 14 C7.75925781 13.95359375 8.51851562 13.9071875 9.30078125 13.859375 C10.79158203 13.80523437 10.79158203 13.80523437 12.3125 13.75 C13.29863281 13.70359375 14.28476563 13.6571875 15.30078125 13.609375 C18 14 18 14 19.84375 15.84375 C21.22017189 18.41059083 21.23931382 20.12823415 21 23 C21.99 23.33 22.98 23.66 24 24 C24.25 30.625 24.25 30.625 22 34 C20.68 33.67 19.36 33.34 18 33 C18.495 32.01 18.495 32.01 19 31 C19.039992 29.00039988 19.04346799 26.99952758 19 25 C17.68 24.67 16.36 24.34 15 24 C15 27.3 15 30.6 15 34 C14.34 34 13.68 34 13 34 C11.875 27.375 11.875 27.375 13 24 C11.35 24.66 9.7 25.32 8 26 C7.73781251 29.14624993 7.75245633 30.61837017 9.5 33.3125 C9.995 33.869375 10.49 34.42625 11 35 C9.35 35 7.7 35 6 35 C6 34.01 6 33.02 6 32 C5.34 32 4.68 32 4 32 C3.67 30.68 3.34 29.36 3 28 C1.02 30.97 1.02 30.97 -1 34 C-1.33 33.34 -1.66 32.68 -2 32 C-1.22265625 29.8359375 -1.22265625 29.8359375 -0.0625 27.375 C0.31777344 26.55773437 0.69804688 25.74046875 1.08984375 24.8984375 C1.39019531 24.27195312 1.69054687 23.64546875 2 23 C0.46452525 24.40078398 -1.05305148 25.82120903 -2.5625 27.25 C-3.40941406 28.03890625 -4.25632812 28.8278125 -5.12890625 29.640625 C-7.28740637 31.80181321 -7.28740637 31.80181321 -6.77734375 34.296875 C-6.52082031 34.85890625 -6.26429687 35.4209375 -6 36 C-9 38 -9 38 -12.1875 37.625 C-13.115625 37.41875 -14.04375 37.2125 -15 37 C-15 34 -15 34 -13.8125 32.4375 C-12 31 -12 31 -9.75 30.3125 C-5.46864727 28.26912711 -2.94115645 24.64466073 0 21 C-2.53594422 20.35763528 -5.07131954 19.75987665 -7.625 19.1875 C-11 18 -11 18 -12.4375 16.0625 C-13 14 -13 14 -13 11 C-13.99 11 -14.98 11 -16 11 C-15.71125 10.443125 -15.4225 9.88625 -15.125 9.3125 C-13.9586747 6.91505355 -12.9660119 4.48403061 -12 2 C-10.68 2 -9.36 2 -8 2 C-8 1.34 -8 0.68 -8 0 C-4.71303767 -0.79953138 -3.28976808 -1.09658936 0 0 Z " fill="#223853" transform="translate(56,36)"/>
<path d="M0 0 C0.33 0 0.66 0 1 0 C1 7.59 1 15.18 1 23 C1.99 23 2.98 23 4 23 C4 32.24 4 41.48 4 51 C9.28 51 14.56 51 20 51 C20.94972145 56.6983287 20.77483806 58.77988807 19 64 C18.01 63.01 17.02 62.02 16 61 C15.54625 61.495 15.0925 61.99 14.625 62.5 C11.65427477 65.2422079 5.95712967 64 2 64 C2 63.01 2 62.02 2 61 C1.01 61 0.02 61 -1 61 C-1 61.99 -1 62.98 -1 64 C-1.99 64 -2.98 64 -4 64 C-4 65.32 -4 66.64 -4 68 C-3.34 68.33 -2.68 68.66 -2 69 C-4.97 69 -7.94 69 -11 69 C-11 62.73 -11 56.46 -11 50 C-7.37 50 -3.74 50 0 50 C0 33.5 0 17 0 0 Z " fill="#74715E" transform="translate(28,27)"/>
<path d="M0 0 C14.85 0 29.7 0 45 0 C40.68879481 4.31120519 36.99585463 7.2129488 31.9375 10.375 C31.23044922 10.83777344 30.52339844 11.30054687 29.79492188 11.77734375 C28.7652832 12.42509766 28.7652832 12.42509766 27.71484375 13.0859375 C27.09730225 13.4782959 26.47976074 13.8706543 25.84350586 14.27490234 C23.47293712 15.20730721 22.36271064 14.86314363 20 14 C12.98593662 10.36270713 5.96309383 6.22647636 0 1 C0 0.67 0 0.34 0 0 Z " fill="#162239" transform="translate(47,96)"/>
<path d="M0 0 C0.68835938 0.32935547 1.37671875 0.65871094 2.0859375 0.99804688 C3.7688733 1.80445361 5.44740293 2.62004494 7.125 3.4375 C6.19225891 4.56644876 5.25359878 5.69050876 4.3125 6.8125 C3.79042969 7.43898438 3.26835938 8.06546875 2.73046875 8.7109375 C1.125 10.4375 1.125 10.4375 -1.875 12.4375 C-2.535 9.4675 -3.195 6.4975 -3.875 3.4375 C-5.195 3.4375 -6.515 3.4375 -7.875 3.4375 C-6.885 4.9225 -6.885 4.9225 -5.875 6.4375 C-5.79594936 8.76949388 -5.78701231 11.10582622 -5.875 13.4375 C-6.535 13.7675 -7.195 14.0975 -7.875 14.4375 C-8.865 14.1075 -9.855 13.7775 -10.875 13.4375 C-10.875 10.4675 -10.875 7.4975 -10.875 4.4375 C-11.865 4.9325 -11.865 4.9325 -12.875 5.4375 C-12.875 8.0775 -12.875 10.7175 -12.875 13.4375 C-14.525 13.4375 -16.175 13.4375 -17.875 13.4375 C-18.5 10.625 -18.5 10.625 -18.875 7.4375 C-18.215 6.4475 -17.555 5.4575 -16.875 4.4375 C-17.865 4.1075 -18.855 3.7775 -19.875 3.4375 C-19.875 4.4275 -19.875 5.4175 -19.875 6.4375 C-21.195 6.7675 -22.515 7.0975 -23.875 7.4375 C-25.4375 5.625 -25.4375 5.625 -26.875 3.4375 C-25.875 0.4375 -25.875 0.4375 -23.36328125 -0.984375 C-22.31527344 -1.42265625 -21.26726563 -1.8609375 -20.1875 -2.3125 C-19.15238281 -2.76109375 -18.11726563 -3.2096875 -17.05078125 -3.671875 C-10.6258359 -5.47370469 -5.68855238 -2.78364239 0 0 Z " fill="#1D2B41" transform="translate(81.875,17.5625)"/>
<path d="M0 0 C0 8.25 0 16.5 0 25 C3.96 25 7.92 25 12 25 C12 31.27 12 37.54 12 44 C9.03 44 6.06 44 3 44 C3 41.36 3 38.72 3 36 C1.68 36 0.36 36 -1 36 C-1.33 36.99 -1.66 37.98 -2 39 C-2.66 39 -3.32 39 -4 39 C-3.34 36.03 -2.68 33.06 -2 30 C-0.68 30 0.64 30 2 30 C2 28.68 2 27.36 2 26 C1.01 26 0.02 26 -1 26 C-1 25.01 -1 24.02 -1 23 C-1.99 23 -2.98 23 -4 23 C-4 15.74 -4 8.48 -4 1 C-1 0 -1 0 0 0 Z " fill="#9A8661" transform="translate(111,52)"/>
<path d="M0 0 C3.96 0 7.92 0 12 0 C12 1.32 12 2.64 12 4 C11.34 4.33 10.68 4.66 10 5 C9.34 5.99 8.68 6.98 8 8 C8 7.01 8 6.02 8 5 C6.02 5 4.04 5 2 5 C1.67 7.31 1.34 9.62 1 12 C2.98 12 4.96 12 7 12 C7.33 11.34 7.66 10.68 8 10 C8 10.99 8 11.98 8 13 C8.66 13 9.32 13 10 13 C10 14.65 10 16.3 10 18 C5.05 18.495 5.05 18.495 0 19 C1.65 20.65 3.3 22.3 5 24 C2.875 24.3125 2.875 24.3125 0 24 C-0.87914063 23.18402344 -1.75828125 22.36804688 -2.6640625 21.52734375 C-6.32077567 18.34928453 -9.54767631 18.25861231 -14.25 18.25 C-21.85432331 18.07283835 -21.85432331 18.07283835 -24 17 C-24 15.68 -24 14.36 -24 13 C-23.01 13 -22.02 13 -21 13 C-21 12.01 -21 11.02 -21 10 C-20.01 10 -19.02 10 -18 10 C-18 10.99 -18 11.98 -18 13 C-17.34 13 -16.68 13 -16 13 C-15.67 12.01 -15.34 11.02 -15 10 C-15 10.99 -15 11.98 -15 13 C-12.06556598 12.73343428 -12.06556598 12.73343428 -9 12 C-8.34 11.01 -7.68 10.02 -7 9 C-6.67 9.99 -6.34 10.98 -6 12 C-5.34 10.68 -4.68 9.36 -4 8 C-3.01 9.32 -2.02 10.64 -1 12 C-0.67 8.04 -0.34 4.08 0 0 Z " fill="#F8F09A" transform="translate(48,78)"/>
<path d="M0 0 C0.99 0 1.98 0 3 0 C3 0.99 3 1.98 3 3 C8.28 3 13.56 3 19 3 C19.94972145 8.6983287 19.77483806 10.77988807 18 16 C17.01 15.01 16.02 14.02 15 13 C14.319375 13.7425 14.319375 13.7425 13.625 14.5 C10.99615956 16.92662195 7.49279881 16 4 16 C2.875 10.25 2.875 10.25 4 8 C3.34 8 2.68 8 2 8 C2 8.99 2 9.98 2 11 C1.01 11 0.02 11 -1 11 C-1 9.68 -1 8.36 -1 7 C-2.98 7 -4.96 7 -7 7 C-7 5.68 -7 4.36 -7 3 C-4.69 3 -2.38 3 0 3 C0 2.01 0 1.02 0 0 Z " fill="#F2EA96" transform="translate(29,75)"/>
<path d="M0 0 C1.21816406 0.03480469 1.21816406 0.03480469 2.4609375 0.0703125 C3.68683594 0.09738281 3.68683594 0.09738281 4.9375 0.125 C5.87722656 0.15980469 5.87722656 0.15980469 6.8359375 0.1953125 C6.8359375 0.8553125 6.8359375 1.5153125 6.8359375 2.1953125 C7.8259375 2.1953125 8.8159375 2.1953125 9.8359375 2.1953125 C10.1040625 3.1646875 10.3721875 4.1340625 10.6484375 5.1328125 C11.0403125 6.1434375 11.4321875 7.1540625 11.8359375 8.1953125 C12.8259375 8.5253125 13.8159375 8.8553125 14.8359375 9.1953125 C14.5059375 9.8553125 14.1759375 10.5153125 13.8359375 11.1953125 C13.1759375 11.1953125 12.5159375 11.1953125 11.8359375 11.1953125 C11.5678125 12.1440625 11.2996875 13.0928125 11.0234375 14.0703125 C9.8359375 17.1953125 9.8359375 17.1953125 6.8359375 19.1953125 C4.79296875 19.609375 4.79296875 19.609375 2.6484375 19.8203125 C1.3903125 19.9440625 0.1321875 20.0678125 -1.1640625 20.1953125 C-1.4940625 19.2053125 -1.8240625 18.2153125 -2.1640625 17.1953125 C-2.8240625 17.1953125 -3.4840625 17.1953125 -4.1640625 17.1953125 C-4.1640625 16.5353125 -4.1640625 15.8753125 -4.1640625 15.1953125 C-3.11605469 15.21271484 -3.11605469 15.21271484 -2.046875 15.23046875 C-1.13679688 15.23949219 -0.22671875 15.24851562 0.7109375 15.2578125 C2.06832031 15.27521484 2.06832031 15.27521484 3.453125 15.29296875 C5.852796 15.35780507 5.852796 15.35780507 7.8359375 14.1953125 C7.8359375 13.5353125 7.8359375 12.8753125 7.8359375 12.1953125 C5.1959375 11.5353125 2.5559375 10.8753125 -0.1640625 10.1953125 C2.19546844 7.83578156 3.61489367 7.70389837 6.8359375 7.1953125 C5.7322752 5.86640866 5.7322752 5.86640866 2.9609375 6.0703125 C-0.19618663 6.05154384 -0.19618663 6.05154384 -3.1640625 7.1953125 C-3.7890625 4.8203125 -3.7890625 4.8203125 -4.1640625 2.1953125 C-2.1640625 0.1953125 -2.1640625 0.1953125 0 0 Z " fill="#7E715B" transform="translate(85.1640625,35.8046875)"/>
<path d="M0 0 C0.8971875 1.1446875 0.8971875 1.1446875 1.8125 2.3125 C3.80259899 4.93588996 3.80259899 4.93588996 5.8125 6.5 C6.204375 6.995 6.59625 7.49 7 8 C6.6875 10.6875 6.6875 10.6875 6 13 C6.99 13.33 7.98 13.66 9 14 C9.73046875 15.84765625 9.73046875 15.84765625 10.1875 18.0625 C10.42533203 19.16271484 10.42533203 19.16271484 10.66796875 20.28515625 C10.77753906 20.85105469 10.88710937 21.41695312 11 22 C9.51793505 21.745504 8.03931385 21.47088238 6.5625 21.1875 C5.73878906 21.03667969 4.91507813 20.88585937 4.06640625 20.73046875 C3.38449219 20.48941406 2.70257813 20.24835937 2 20 C1.67 19.01 1.34 18.02 1 17 C0.01 17 -0.98 17 -2 17 C-3.3927289 15.38263741 -4.71937515 13.7074998 -6 12 C-7.31494512 10.64852862 -8.64264858 9.30887458 -10 8 C-5.69235185 9.56641751 -1.93828536 11.68336156 2 14 C1.4946875 13.44570313 0.989375 12.89140625 0.46875 12.3203125 C-0.1809375 11.59585937 -0.830625 10.87140625 -1.5 10.125 C-2.1496875 9.40570313 -2.799375 8.68640625 -3.46875 7.9453125 C-5 6 -5 6 -5 4 C-5.66 3.67 -6.32 3.34 -7 3 C-4.69 2.01 -2.38 1.02 0 0 Z " fill="#243954" transform="translate(54,19)"/>
<path d="M0 0 C1.32 0.33 2.64 0.66 4 1 C3.01 2.485 3.01 2.485 2 4 C1.83300768 7.12521833 1.83300768 7.12521833 2 10 C3.65 10 5.3 10 7 10 C6.67 7.36 6.34 4.72 6 2 C6.99 1.67 7.98 1.34 9 1 C9 3.97 9 6.94 9 10 C10.32 10 11.64 10 13 10 C13.11320856 4.91696314 13.11320856 4.91696314 12 0 C13.32 0 14.64 0 16 0 C18.67927341 4.01891012 18.15601248 6.24161923 18 11 C17.01 11 16.02 11 15 11 C15 12.65 15 14.3 15 16 C13.02 16.99 13.02 16.99 11 18 C11 16.33333333 11 14.66666667 11 13 C8.69 13 6.38 13 4 13 C4.33 14.65 4.66 16.3 5 18 C3.68 17.67 2.36 17.34 1 17 C0.87625 16.195625 0.7525 15.39125 0.625 14.5625 C0.315625 13.2940625 0.315625 13.2940625 0 12 C-0.66 11.67 -1.32 11.34 -2 11 C-2 8.36 -2 5.72 -2 3 C-1.34 3 -0.68 3 0 3 C0 2.01 0 1.02 0 0 Z " fill="#E7E3A5" transform="translate(62,21)"/>
<path d="M0 0 C0.99 0 1.98 0 3 0 C2.67 1.32 2.34 2.64 2 4 C2.66 4 3.32 4 4 4 C4 3.34 4 2.68 4 2 C5.32 2 6.64 2 8 2 C8 2.66 8 3.32 8 4 C9.65 4 11.3 4 13 4 C13 4.66 13 5.32 13 6 C13.99 6.33 14.98 6.66 16 7 C16.25 13.625 16.25 13.625 14 17 C12.68 16.67 11.36 16.34 10 16 C10.33 15.34 10.66 14.68 11 14 C11.039992 12.00039988 11.04346799 9.99952758 11 8 C9.68 7.67 8.36 7.34 7 7 C7 10.3 7 13.6 7 17 C6.34 17 5.68 17 5 17 C3.875 10.375 3.875 10.375 5 7 C3.35 7.66 1.7 8.32 0 9 C-0.26218749 12.14624993 -0.24754367 13.61837017 1.5 16.3125 C1.995 16.869375 2.49 17.42625 3 18 C1.35 18 -0.3 18 -2 18 C-2 17.01 -2 16.02 -2 15 C-2.66 15 -3.32 15 -4 15 C-4 12.03 -4 9.06 -4 6 C-3.34 5.67 -2.68 5.34 -2 5 C-1.27840576 3.35636866 -0.60648579 1.68949614 0 0 Z " fill="#F1EDAC" transform="translate(64,53)"/>
<path d="M0 0 C2.64 0.99 5.28 1.98 8 3 C4.50640535 6.59634744 0.88901869 9.83451967 -3 13 C-2.67 13.66 -2.34 14.32 -2 15 C-3.32 15 -4.64 15 -6 15 C-6.33 15.99 -6.66 16.98 -7 18 C-9.89558441 19.4477922 -11.74188938 20 -15 20 C-15.33 19.34 -15.66 18.68 -16 18 C-15.525625 17.5875 -15.05125 17.175 -14.5625 16.75 C-12.83733482 14.817815 -12.43415125 13.51807725 -12 11 C-11.01 11 -10.02 11 -9 11 C-8.74476562 10.41734375 -8.48953125 9.8346875 -8.2265625 9.234375 C-6.88258913 6.78611777 -5.38189704 5.18256752 -3.375 3.25 C-2.74335937 2.63640625 -2.11171875 2.0228125 -1.4609375 1.390625 C-0.73777344 0.70226562 -0.73777344 0.70226562 0 0 Z " fill="#263B53" transform="translate(89,21)"/>
<path d="M0 0 C0.495 0.99 0.495 0.99 1 2 C1.99 2.33 2.98 2.66 4 3 C1.4378513 4.60473003 -1.12470555 6.20880182 -3.6875 7.8125 C-4.7693457 8.49022461 -4.7693457 8.49022461 -5.87304688 9.18164062 C-7.28182841 10.06293318 -8.69436058 10.9382627 -10.11083984 11.80712891 C-11.66553834 12.78881111 -13.16444659 13.85828486 -14.64453125 14.94921875 C-17 16 -17 16 -19.7890625 15.5078125 C-23.8661325 13.59327598 -27.59483985 11.31535655 -31.375 8.875 C-32.11105469 8.40707031 -32.84710938 7.93914062 -33.60546875 7.45703125 C-35.40730078 6.31041087 -37.20416431 5.15598924 -39 4 C-37.20703125 2.9050293 -37.20703125 2.9050293 -35 2 C-32.46852323 3.16125526 -30.32556362 4.32618266 -28 5.8125 C-22.83559734 9.23946968 -22.83559734 9.23946968 -17 11 C-15.02352015 10.25082756 -15.02352015 10.25082756 -13.14453125 8.9453125 C-12.44005859 8.49542969 -11.73558594 8.04554687 -11.00976562 7.58203125 C-10.28466797 7.10121094 -9.55957031 6.62039062 -8.8125 6.125 C-8.07580078 5.65191406 -7.33910156 5.17882812 -6.58007812 4.69140625 C-3.11479633 2.57050844 -3.11479633 2.57050844 0 0 Z " fill="#8F795B" transform="translate(88,99)"/>
<path d="M0 0 C0.33 0.99 0.66 1.98 1 3 C1.5775 2.649375 2.155 2.29875 2.75 1.9375 C5.3962985 0.83487562 6.37615122 0.95046049 9 2 C11.39763185 4.39763185 11.34280586 5.33273498 11.625 8.625 C11.69976562 9.44226562 11.77453125 10.25953125 11.8515625 11.1015625 C11.92503906 12.04128906 11.92503906 12.04128906 12 13 C9.47946405 14.26026798 8.1457902 13.91874445 5.375 13.5625 C4.55773438 13.46066406 3.74046875 13.35882813 2.8984375 13.25390625 C2.27195312 13.17011719 1.64546875 13.08632813 1 13 C0.67 13.66 0.34 14.32 0 15 C-0.33 13.02 -0.66 11.04 -1 9 C-1.99 9 -2.98 9 -4 9 C-3.71125 8.443125 -3.4225 7.88625 -3.125 7.3125 C-1.9586747 4.91505355 -0.9660119 2.48403061 0 0 Z " fill="#726858" transform="translate(44,38)"/>
<path d="M0 0 C0.33 0.66 0.66 1.32 1 2 C2.97888961 2.72693904 4.97954558 3.39816251 7 4 C7 4.99 7 5.98 7 7 C4.525 6.505 4.525 6.505 2 6 C2 8.31 2 10.62 2 13 C4.21081851 13.10540926 4.21081851 13.10540926 7 12 C6.67 13.65 6.34 15.3 6 17 C4.02 17 2.04 17 0 17 C0 17.99 0 18.98 0 20 C-1.45880109 19.85892253 -2.91703551 19.71197585 -4.375 19.5625 C-5.59316406 19.44068359 -5.59316406 19.44068359 -6.8359375 19.31640625 C-9 19 -9 19 -11 18 C-11 17.01 -11 16.02 -11 15 C-7.37 15 -3.74 15 0 15 C-0.33 13.35 -0.66 11.7 -1 10 C-1.66 9.67 -2.32 9.34 -3 9 C-2.34 9 -1.68 9 -1 9 C-1.7763932 5.9254644 -1.7763932 5.9254644 -4 4 C-7.59679066 4.32326553 -7.59679066 4.32326553 -11 5 C-11 4.01 -11 3.02 -11 2 C-10.01 2 -9.02 2 -8 2 C-8 1.34 -8 0.68 -8 0 C-4.71303767 -0.79953138 -3.28976808 -1.09658936 0 0 Z " fill="#8D7C60" transform="translate(56,36)"/>
<path d="M0 0 C0.33 0.66 0.66 1.32 1 2 C-4.94 4.64 -10.88 7.28 -17 10 C-17.33 16.93 -17.66 23.86 -18 31 C-18.99 31 -19.98 31 -21 31 C-21 23.08 -21 15.16 -21 7 C-18.834375 6.030625 -16.66875 5.06125 -14.4375 4.0625 C-13.77032959 3.75836182 -13.10315918 3.45422363 -12.41577148 3.14086914 C-8.25350999 1.31930917 -4.52172182 0.45973748 0 0 Z " fill="#EDE79C" transform="translate(50,19)"/>
<path d="M0 0 C0.391875 0.474375 0.78375 0.94875 1.1875 1.4375 C3.40908173 3.35265666 5.16036935 3.47691014 8 4 C8.33 4.66 8.66 5.32 9 6 C9.804375 6.474375 10.60875 6.94875 11.4375 7.4375 C14 9 14 9 16 12 C15.236875 11.690625 14.47375 11.38125 13.6875 11.0625 C11.81210323 10.32106407 9.91315348 9.63771783 8 9 C9.12029017 10.48273699 10.24638618 11.96108886 11.375 13.4375 C12.00148438 14.26121094 12.62796875 15.08492187 13.2734375 15.93359375 C14.83753904 18.08528092 14.83753904 18.08528092 17 19 C19.11683841 18.10836423 19.11683841 18.10836423 21 17 C21.99 17.66 22.98 18.32 24 19 C23.67 20.65 23.34 22.3 23 24 C22.01 24.33 21.02 24.66 20 25 C19.34773438 24.40832031 18.69546875 23.81664063 18.0234375 23.20703125 C10.54876572 15.87327364 10.54876572 15.87327364 2 10 C1.32060826 8.00428677 0.65438441 6.00405227 0 4 C-0.66 3.34 -1.32 2.68 -2 2 C-1.34 1.34 -0.68 0.68 0 0 Z " fill="#1F344F" transform="translate(75,49)"/>
<path d="M0 0 C2 0 2 0 3.4375 1.375 C3.953125 1.91125 4.46875 2.4475 5 3 C5.99 3.66 6.98 4.32 8 5 C7.01 5 6.02 5 5 5 C5.99 6.485 5.99 6.485 7 8 C7.07905064 10.33199388 7.08798769 12.66832622 7 15 C6.01 15.495 6.01 15.495 5 16 C4.01 15.67 3.02 15.34 2 15 C2 12.03 2 9.06 2 6 C1.01 6.495 1.01 6.495 0 7 C0 9.64 0 12.28 0 15 C-1.65 15 -3.3 15 -5 15 C-5.625 12.1875 -5.625 12.1875 -6 9 C-5.34 8.01 -4.68 7.02 -4 6 C-4.99 5.34 -5.98 4.68 -7 4 C-4.69 3.34 -2.38 2.68 0 2 C0 1.34 0 0.68 0 0 Z " fill="#AAA378" transform="translate(69,16)"/>
<path d="M0 0 C1.17175781 0.54333984 1.17175781 0.54333984 2.3671875 1.09765625 C3.23730469 1.51337891 3.23730469 1.51337891 4.125 1.9375 C4.125 2.2675 4.125 2.5975 4.125 2.9375 C3.34125 2.916875 2.5575 2.89625 1.75 2.875 C-0.85614961 2.75065937 -0.85614961 2.75065937 -2.875 3.9375 C-3.4525 3.6075 -4.03 3.2775 -4.625 2.9375 C-8.14815703 1.37165243 -11.18934078 2.35952242 -14.76757812 3.58642578 C-16.77561726 4.36054374 -18.76416558 5.17064473 -20.75 6 C-21.43835937 6.28166016 -22.12671875 6.56332031 -22.8359375 6.85351562 C-24.51789909 7.54265266 -26.19677697 8.23930798 -27.875 8.9375 C-28.205 8.6075 -28.535 8.2775 -28.875 7.9375 C-30.54117115 7.89686168 -32.20888095 7.894779 -33.875 7.9375 C-30.49612712 4.55862712 -25.96463586 3.13946461 -21.625 1.25 C-20.68269531 0.82138672 -19.74039063 0.39277344 -18.76953125 -0.04882812 C-11.44700181 -3.23767159 -7.3052104 -3.43123519 0 0 Z " fill="#927E5E" transform="translate(78.875,12.0625)"/>
<path d="M0 0 C2 2 2 2 2.1875 5 C2 8 2 8 1 10 C1.66 10.66 2.32 11.32 3 12 C1.02 12.66 -0.96 13.32 -3 14 C-3 14.66 -3 15.32 -3 16 C-3.66 16 -4.32 16 -5 16 C-5 15.34 -5 14.68 -5 14 C-6.32 13.34 -7.64 12.68 -9 12 C-9 11.34 -9 10.68 -9 10 C-9.66 9.34 -10.32 8.68 -11 8 C-10.625 4.375 -10.625 4.375 -10 1 C-8.35 1 -6.7 1 -5 1 C-5 4.3 -5 7.6 -5 11 C-4.34 11 -3.68 11 -3 11 C-3 7.7 -3 4.4 -3 1 C-2.01 0.67 -1.02 0.34 0 0 Z " fill="#AFA77B" transform="translate(74,59)"/>
<path d="M0 0 C0.66 0.99 1.32 1.98 2 3 C0.02 3.33 -1.96 3.66 -4 4 C-4 4.33 -4 4.66 -4 5 C-1.69 5.66 0.62 6.32 3 7 C2 10 2 10 0 11 C-1.71233688 10.9129796 -3.42175406 10.75902838 -5.125 10.5625 C-6.49011719 10.40974609 -6.49011719 10.40974609 -7.8828125 10.25390625 C-8.58148438 10.17011719 -9.28015625 10.08632813 -10 10 C-10 9.01 -10 8.02 -10 7 C-11.32 6.67 -12.64 6.34 -14 6 C-13 3 -13 3 -9.8125 1.3125 C-6.44338388 0.00228817 -3.6339404 -0.50706145 0 0 Z " fill="#806F59" transform="translate(91,41)"/>
<path d="M0 0 C4.62 0 9.24 0 14 0 C13.125 6.875 13.125 6.875 12 8 C10.00041636 8.04080783 7.99954746 8.04254356 6 8 C6 6.68 6 5.36 6 4 C5.34 4 4.68 4 4 4 C4.33 5.32 4.66 6.64 5 8 C2.03 7.505 2.03 7.505 -1 7 C-0.67 4.69 -0.34 2.38 0 0 Z " fill="#373A41" transform="translate(64,83)"/>
<path d="M0 0 C1.32 0 2.64 0 4 0 C4 1.32 4 2.64 4 4 C4.99 4.66 5.98 5.32 7 6 C6.01 6 5.02 6 4 6 C4 7.32 4 8.64 4 10 C4.66 10.33 5.32 10.66 6 11 C6 11.66 6 12.32 6 13 C4.35 13 2.7 13 1 13 C1 12.01 1 11.02 1 10 C-0.32 10 -1.64 10 -3 10 C-3.33 10.99 -3.66 11.98 -4 13 C-4.66 13 -5.32 13 -6 13 C-5.34 10.03 -4.68 7.06 -4 4 C-2.68 4 -1.36 4 0 4 C0 2.68 0 1.36 0 0 Z " fill="#A39D70" transform="translate(113,78)"/>
<path d="M0 0 C2.02408755 0.09002398 4.04544287 0.24641038 6.0625 0.4375 C7.71958984 0.59025391 7.71958984 0.59025391 9.41015625 0.74609375 C10.26480469 0.82988281 11.11945313 0.91367188 12 1 C10.68 1.33 9.36 1.66 8 2 C8 2.66 8 3.32 8 4 C8.99 4 9.98 4 11 4 C10.67 5.65 10.34 7.3 10 9 C6.28400809 9.20086443 5.22791555 9.1519437 2 7 C2 7.66 2 8.32 2 9 C1.34 9 0.68 9 0 9 C0.33 6.69 0.66 4.38 1 2 C0.34 1.67 -0.32 1.34 -1 1 C-0.67 0.67 -0.34 0.34 0 0 Z " fill="#949675" transform="translate(92,82)"/>
<path d="M0 0 C3.3 0 6.6 0 10 0 C9.67 1.98 9.34 3.96 9 6 C9.99 6 10.98 6 12 6 C12 6.66 12 7.32 12 8 C7.66666667 8 3.33333333 8 -1 8 C-0.67 5.36 -0.34 2.72 0 0 Z " fill="#757765" transform="translate(79,83)"/>
<path d="M0 0 C4.29 0 8.58 0 13 0 C12.01 1.98 11.02 3.96 10 6 C10.66 6 11.32 6 12 6 C11.67 7.98 11.34 9.96 11 12 C9.68 11.67 8.36 11.34 7 11 C7.33 9.02 7.66 7.04 8 5 C7.34 5 6.68 5 6 5 C5.67 5.99 5.34 6.98 5 8 C4.67 7.01 4.34 6.02 4 5 C1.98491642 4.26676204 1.98491642 4.26676204 0 4 C0 2.68 0 1.36 0 0 Z " fill="#F6F0B2" transform="translate(81,78)"/>
<path d="M0 0 C0 6.93 0 13.86 0 21 C-0.33 20.34 -0.66 19.68 -1 19 C-1.99 19.33 -2.98 19.66 -4 20 C-4 13.73 -4 7.46 -4 1 C-1 0 -1 0 0 0 Z " fill="#937D5D" transform="translate(111,52)"/>
<path d="M0 0 C0.99 0 1.98 0 3 0 C3 8.25 3 16.5 3 25 C2.01 25 1.02 25 0 25 C0 16.75 0 8.5 0 0 Z " fill="#A58E65" transform="translate(29,50)"/>
<path d="M0 0 C0.66 0 1.32 0 2 0 C1.67 1.98 1.34 3.96 1 6 C1.99 6 2.98 6 4 6 C4.33 4.02 4.66 2.04 5 0 C7.375 -0.125 7.375 -0.125 10 0 C10.66 0.66 11.32 1.32 12 2 C12.33 1.34 12.66 0.68 13 0 C13.66 0.33 14.32 0.66 15 1 C14.34 3.31 13.68 5.62 13 8 C12.01 7.01 11.02 6.02 10 5 C9.54625 5.495 9.0925 5.99 8.625 6.5 C5.99615956 8.92662195 2.49279881 8 -1 8 C-0.67 5.36 -0.34 2.72 0 0 Z " fill="#3B4448" transform="translate(34,83)"/>
<path d="M0 0 C4.29 0 8.58 0 13 0 C11.68 0.33 10.36 0.66 9 1 C9 1.66 9 2.32 9 3 C9.99 3.33 10.98 3.66 12 4 C10.68 4 9.36 4 8 4 C8 4.66 8 5.32 8 6 C8.99 6 9.98 6 11 6 C11 6.66 11 7.32 11 8 C9.33388095 8.042721 7.66617115 8.04063832 6 8 C5.67 7.67 5.34 7.34 5 7 C3.00041636 6.95919217 0.99954746 6.95745644 -1 7 C-0.67 4.69 -0.34 2.38 0 0 Z " fill="#5F6662" transform="translate(50,83)"/>
<path d="M0 0 C2.31 0 4.62 0 7 0 C7 1.32 7 2.64 7 4 C8.32 4.33 9.64 4.66 11 5 C9.02 5 7.04 5 5 5 C4.67 7.64 4.34 10.28 4 13 C4.99 13 5.98 13 7 13 C7.33 14.65 7.66 16.3 8 18 C6.02 18 4.04 18 2 18 C2.14148989 16.3954444 2.28835686 14.79136233 2.4375 13.1875 C2.51871094 12.29417969 2.59992188 11.40085937 2.68359375 10.48046875 C3 8 3 8 4 5 C2.68 4.67 1.36 4.34 0 4 C0 2.68 0 1.36 0 0 Z " fill="#C1AF74" transform="translate(74,78)"/>
<path d="M0 0 C0.99 0 1.98 0 3 0 C3 7.26 3 14.52 3 22 C2.01 22 1.02 22 0 22 C0 14.74 0 7.48 0 0 Z " fill="#FAF2AC" transform="translate(29,28)"/>
<path d="M0 0 C0.99 0 1.98 0 3 0 C2.4140625 6.15234375 2.4140625 6.15234375 2 8 C1.01 8.495 1.01 8.495 0 9 C-0.26218749 12.14624993 -0.24754367 13.61837017 1.5 16.3125 C1.995 16.869375 2.49 17.42625 3 18 C1.35 18 -0.3 18 -2 18 C-2 17.01 -2 16.02 -2 15 C-2.66 15 -3.32 15 -4 15 C-4 12.03 -4 9.06 -4 6 C-3.34 5.67 -2.68 5.34 -2 5 C-1.27840576 3.35636866 -0.60648579 1.68949614 0 0 Z " fill="#EDE7A6" transform="translate(64,53)"/>
<path d="M0 0 C5.29284165 -0.34707158 5.29284165 -0.34707158 8 0 C10 1.8125 10 1.8125 11 4 C11 4.99 11 5.98 11 7 C9.02 7.33 7.04 7.66 5 8 C5.33 7.01 5.66 6.02 6 5 C4.68 5 3.36 5 2 5 C2.33 5.99 2.66 6.98 3 8 C1.35 7.67 -0.3 7.34 -2 7 C-1.01 5.68 -0.02 4.36 1 3 C0.34 2.67 -0.32 2.34 -1 2 C-0.67 1.34 -0.34 0.68 0 0 Z " fill="#6F6F62" transform="translate(66,50)"/>
<path d="M0 0 C3.96 0 7.92 0 12 0 C12 1.32 12 2.64 12 4 C11.01 4.495 11.01 4.495 10 5 C9.01 6.485 9.01 6.485 8 8 C8 7.01 8 6.02 8 5 C5.69 5.33 3.38 5.66 1 6 C0.67 4.02 0.34 2.04 0 0 Z " fill="#F3ECA2" transform="translate(48,78)"/>
<path d="M0 0 C0.66 0.66 1.32 1.32 2 2 C1.01 3.485 1.01 3.485 0 5 C0.33 5.99 0.66 6.98 1 8 C-1.64 8 -4.28 8 -7 8 C-6.95875 7.21625 -6.9175 6.4325 -6.875 5.625 C-6.71271266 2.83883881 -6.71271266 2.83883881 -9 1 C-5.98675805 -0.50662097 -3.31713623 -0.17770373 0 0 Z " fill="#919476" transform="translate(73,33)"/>
<path d="M0 0 C0.99 0 1.98 0 3 0 C3 5.94 3 11.88 3 18 C2.01 18 1.02 18 0 18 C0 12.06 0 6.12 0 0 Z " fill="#FAF4B2" transform="translate(107,28)"/>
<path d="M0 0 C2.475 0.99 2.475 0.99 5 2 C0.93265026 6.59216906 -3.56385928 9.2167907 -9 12 C-7.55575365 8.76138697 -5.74227753 6.38030837 -3.375 3.75 C-2.74335937 3.04359375 -2.11171875 2.3371875 -1.4609375 1.609375 C-0.97882813 1.07828125 -0.49671875 0.5471875 0 0 Z " fill="#121F39" transform="translate(90,22)"/>
<path d="M0 0 C2.64 0 5.28 0 8 0 C8 0.99 8 1.98 8 3 C8.99 3 9.98 3 11 3 C11 2.01 11 1.02 11 0 C11.66 0 12.32 0 13 0 C12.67 2.64 12.34 5.28 12 8 C11.34 8 10.68 8 10 8 C10 7.01 10 6.02 10 5 C9.01 5 8.02 5 7 5 C7 5.99 7 6.98 7 8 C6.34 8 5.68 8 5 8 C5.33 5.69 5.66 3.38 6 1 C5.01 1 4.02 1 3 1 C2.67 3.31 2.34 5.62 2 8 C1.34 8 0.68 8 0 8 C0 5.36 0 2.72 0 0 Z " fill="#363F46" transform="translate(20,83)"/>
<path d="M0 0 C2.97 0 5.94 0 9 0 C9 1.32 9 2.64 9 4 C9.66 4.33 10.32 4.66 11 5 C9.35 5 7.7 5 6 5 C5.67 5.99 5.34 6.98 5 8 C5 7.01 5 6.02 5 5 C3.02 5 1.04 5 -1 5 C-0.67 3.35 -0.34 1.7 0 0 Z " fill="#947D58" transform="translate(65,78)"/>
<path d="M0 0 C-2.40768703 2.79163712 -4.76146616 3.89717557 -8.1875 5.1875 C-9.08855469 5.53167969 -9.98960938 5.87585938 -10.91796875 6.23046875 C-11.94857422 6.61138672 -11.94857422 6.61138672 -13 7 C-13.33 6.67 -13.66 6.34 -14 6 C-15.66617115 5.95936168 -17.33388095 5.957279 -19 6 C-14.06219982 1.06219982 -6.78026041 -0.58958786 0 0 Z " fill="#CCBC7D" transform="translate(64,14)"/>
<path d="M0 0 C4.55384615 -0.36923077 4.55384615 -0.36923077 6.8125 1.5 C7.204375 1.995 7.59625 2.49 8 3 C6.35 4.65 4.7 6.3 3 8 C0.5 6.6875 0.5 6.6875 -2 5 C-2 4.01 -2 3.02 -2 2 C-1.34 2 -0.68 2 0 2 C0 1.34 0 0.68 0 0 Z " fill="#A4A075" transform="translate(67,99)"/>
<path d="M0 0 C1.65 0 3.3 0 5 0 C5 1.32 5 2.64 5 4 C6.98 4 8.96 4 11 4 C11 4.33 11 4.66 11 5 C9.88625 5.12375 8.7725 5.2475 7.625 5.375 C3.96896323 5.6465813 3.96896323 5.6465813 2 8 C1.53837573 10.43252661 1.53837573 10.43252661 1.375 13.125 C1.30023437 14.03507812 1.22546875 14.94515625 1.1484375 15.8828125 C1.09945313 16.58148438 1.05046875 17.28015625 1 18 C0.67 18 0.34 18 0 18 C0 12.06 0 6.12 0 0 Z " fill="#AD986A" transform="translate(17,78)"/>
<path d="M0 0 C2.375 -0.125 2.375 -0.125 5 0 C5.66 0.66 6.32 1.32 7 2 C6.625 4.625 6.625 4.625 6 7 C4.02 7 2.04 7 0 7 C-1.125 2.25 -1.125 2.25 0 0 Z " fill="#8E785B" transform="translate(67,42)"/>
<path d="M0 0 C0.33 0.99 0.66 1.98 1 3 C3.01508358 3.73323796 3.01508358 3.73323796 5 4 C4.67 4.66 4.34 5.32 4 6 C5.32 6.66 6.64 7.32 8 8 C4.37 8 0.74 8 -3 8 C-3.33 6.35 -3.66 4.7 -4 3 C-3.01 2.67 -2.02 2.34 -1 2 C-0.67 1.34 -0.34 0.68 0 0 Z " fill="#F7F1B2" transform="translate(85,88)"/>
<path d="M0 0 C-0.33 1.32 -0.66 2.64 -1 4 C-4.3 4.66 -7.6 5.32 -11 6 C-11.33 5.01 -11.66 4.02 -12 3 C-12.66 3 -13.32 3 -14 3 C-14 2.34 -14 1.68 -14 1 C-12.95199219 1.01740234 -12.95199219 1.01740234 -11.8828125 1.03515625 C-10.97273438 1.04417969 -10.06265625 1.05320313 -9.125 1.0625 C-7.76761719 1.07990234 -7.76761719 1.07990234 -6.3828125 1.09765625 C-3.92124681 0.99677241 -2.42285583 0 0 0 Z " fill="#A89569" transform="translate(95,50)"/>
<path d="M0 0 C1.21816406 0.03480469 1.21816406 0.03480469 2.4609375 0.0703125 C3.68683594 0.09738281 3.68683594 0.09738281 4.9375 0.125 C5.87722656 0.15980469 5.87722656 0.15980469 6.8359375 0.1953125 C6.8359375 0.8553125 6.8359375 1.5153125 6.8359375 2.1953125 C7.8259375 2.1953125 8.8159375 2.1953125 9.8359375 2.1953125 C9.8359375 2.8553125 9.8359375 3.5153125 9.8359375 4.1953125 C6.2059375 4.1953125 2.5759375 4.1953125 -1.1640625 4.1953125 C-1.1640625 5.1853125 -1.1640625 6.1753125 -1.1640625 7.1953125 C-1.8240625 7.1953125 -2.4840625 7.1953125 -3.1640625 7.1953125 C-3.7890625 4.8203125 -3.7890625 4.8203125 -4.1640625 2.1953125 C-2.1640625 0.1953125 -2.1640625 0.1953125 0 0 Z " fill="#D2C481" transform="translate(85.1640625,35.8046875)"/>
<path d="M0 0 C1.65 0 3.3 0 5 0 C4.53199289 4.05606165 4.12046792 7.46588679 2 11 C0.68 11 -0.64 11 -2 11 C-1.7215625 9.824375 -1.7215625 9.824375 -1.4375 8.625 C-0.74037734 6.02910225 -0.74037734 6.02910225 -2 4 C-1.34 4 -0.68 4 0 4 C0 2.68 0 1.36 0 0 Z " fill="#A89868" transform="translate(60,78)"/>
<path d="M0 0 C6.06732052 1.03767051 11.4373852 2.33961901 17 5 C17 5.33 17 5.66 17 6 C10.80282648 7.75137513 7.50720839 6.17309311 1.94140625 3.12890625 C1.30074219 2.75636719 0.66007812 2.38382813 0 2 C0 1.34 0 0.68 0 0 Z " fill="#C7B67A" transform="translate(77,14)"/>
<path d="M0 0 C2 2 2 2 2.25 4.9375 C2 8 2 8 0 11 C-0.99 10.67 -1.98 10.34 -3 10 C-3 7.03 -3 4.06 -3 1 C-2.01 0.67 -1.02 0.34 0 0 Z " fill="#8B917C" transform="translate(74,59)"/>
<path d="M0 0 C4 2 4 2 5 3 C5.04092937 5.33297433 5.04241723 7.66705225 5 10 C4.01 10.495 4.01 10.495 3 11 C2.01 10.67 1.02 10.34 0 10 C0 6.7 0 3.4 0 0 Z " fill="#8A907A" transform="translate(71,21)"/>
<path d="M0 0 C0.33 0.99 0.66 1.98 1 3 C1.66 3 2.32 3 3 3 C3 4.65 3 6.3 3 8 C0.03 7.67 -2.94 7.34 -6 7 C-6 5.68 -6 4.36 -6 3 C-5.195625 2.87625 -4.39125 2.7525 -3.5625 2.625 C-2.716875 2.41875 -1.87125 2.2125 -1 2 C-0.67 1.34 -0.34 0.68 0 0 Z " fill="#FEF9BB" transform="translate(55,88)"/>
<path d="M0 0 C2.97 0 5.94 0 9 0 C9 1.32 9 2.64 9 4 C6.29120665 5.35439668 3.99066732 5.06501451 1 5 C0.67 3.35 0.34 1.7 0 0 Z " fill="#514F4F" transform="translate(84,47)"/>
<path d="M0 0 C2.475 0.99 2.475 0.99 5 2 C5.3125 4.3125 5.3125 4.3125 5 7 C2.5 8.8125 2.5 8.8125 0 10 C-1.49106457 7.01787087 -1.11941467 4.28390342 -1 1 C-0.67 0.67 -0.34 0.34 0 0 Z " fill="#585757" transform="translate(58,41)"/>
<path d="M0 0 C0.99 0 1.98 0 3 0 C3 2.64 3 5.28 3 8 C-2.28 8 -7.56 8 -13 8 C-13 7.67 -13 7.34 -13 7 C-9.04 7 -5.08 7 -1 7 C-0.67 4.69 -0.34 2.38 0 0 Z " fill="#F3EA94" transform="translate(111,88)"/>
<path d="M0 0 C1.65 0.33 3.3 0.66 5 1 C4.06725891 2.12894876 3.12859878 3.25300876 2.1875 4.375 C1.66542969 5.00148438 1.14335938 5.62796875 0.60546875 6.2734375 C-1 8 -1 8 -4 10 C-4.33 9.01 -4.66 8.02 -5 7 C-4.00390625 5.17578125 -4.00390625 5.17578125 -2.5625 3.3125 C-2.08941406 2.68988281 -1.61632812 2.06726563 -1.12890625 1.42578125 C-0.75636719 0.95527344 -0.38382812 0.48476563 0 0 Z " fill="#111F39" transform="translate(84,20)"/>
<path d="M0 0 C2.61580479 0.3269756 4.64078137 0.82039068 7 2 C7 2.66 7 3.32 7 4 C4 6 4 6 0.8125 5.625 C-0.115625 5.41875 -1.04375 5.2125 -2 5 C-2 2 -2 2 0 0 Z " fill="#D8D39B" transform="translate(43,68)"/>
<path d="M0 0 C0.66 0 1.32 0 2 0 C5 5.75 5 5.75 5 8 C5.66 8 6.32 8 7 8 C6.67 9.32 6.34 10.64 6 12 C3.36 9.36 0.72 6.72 -2 4 C-1.34 2.68 -0.68 1.36 0 0 Z " fill="#12213B" transform="translate(52,20)"/>
<path d="M0 0 C0.33 0.66 0.66 1.32 1 2 C1.99 2.33 2.98 2.66 4 3 C2.75747321 3.84443568 1.5056114 4.6751458 0.25 5.5 C-0.79414062 6.19609375 -0.79414062 6.19609375 -1.859375 6.90625 C-4 8 -4 8 -8 8 C-6.88333826 4.65001479 -6.25305075 4.20659778 -3.4375 2.3125 C-2.79683594 1.87550781 -2.15617187 1.43851562 -1.49609375 0.98828125 C-1.00238281 0.66214844 -0.50867188 0.33601563 0 0 Z " fill="#C6B579" transform="translate(88,99)"/>
<path d="M0 0 C1.32 0.33 2.64 0.66 4 1 C3.01 2.485 3.01 2.485 2 4 C1.92094936 6.33199388 1.91201231 8.66832622 2 11 C0.68 11 -0.64 11 -2 11 C-2 8.36 -2 5.72 -2 3 C-1.34 3 -0.68 3 0 3 C0 2.01 0 1.02 0 0 Z " fill="#FBF7BE" transform="translate(62,21)"/>
<path d="M0 0 C0 0.99 0 1.98 0 3 C-3.63 3.66 -7.26 4.32 -11 5 C-11 4.01 -11 3.02 -11 2 C-10.01 2 -9.02 2 -8 2 C-8 1.34 -8 0.68 -8 0 C-4.71303767 -0.79953138 -3.28976808 -1.09658936 0 0 Z " fill="#DCCF88" transform="translate(56,36)"/>
<path d="M0 0 C1.32 0.66 2.64 1.32 4 2 C3.67 3.65 3.34 5.3 3 7 C2.01 7.33 1.02 7.66 0 8 C-0.66 7.34 -1.32 6.68 -2 6 C-1.44444444 1.44444444 -1.44444444 1.44444444 0 0 Z " fill="#D0C585" transform="translate(95,66)"/>
<path d="M0 0 C0.33 0 0.66 0 1 0 C1 3.63 1 7.26 1 11 C-0.32 11.33 -1.64 11.66 -3 12 C-3 9.69 -3 7.38 -3 5 C-2.01 5 -1.02 5 0 5 C0 3.35 0 1.7 0 0 Z " fill="#D1C281" transform="translate(110,41)"/>
<path d="M0 0 C1.98 0 3.96 0 6 0 C5.360625 0.2475 4.72125 0.495 4.0625 0.75 C1.81258459 1.81562433 1.81258459 1.81562433 1.25 4.125 C1.1675 4.74375 1.085 5.3625 1 6 C1.99 6 2.98 6 4 6 C4.33 5.01 4.66 4.02 5 3 C5.5625 4.9375 5.5625 4.9375 6 7 C5 8 5 8 1.9375 8.0625 C0.968125 8.041875 -0.00125 8.02125 -1 8 C-0.67 5.36 -0.34 2.72 0 0 Z " fill="#2D3642" transform="translate(79,83)"/>
<path d="M0 0 C0.66 0 1.32 0 2 0 C1.67 1.98 1.34 3.96 1 6 C2.65 6 4.3 6 6 6 C6 6.33 6 6.66 6 7 C4.35 7 2.7 7 1 7 C1 8.32 1 9.64 1 11 C2.65 11 4.3 11 6 11 C6 11.33 6 11.66 6 12 C3.125 12.125 3.125 12.125 0 12 C-0.66 11.34 -1.32 10.68 -2 10 C-1.67 9.67 -1.34 9.34 -1 9 C-1 8.01 -1 7.02 -1 6 C-0.68578929 3.99690671 -0.3548954 1.99628664 0 0 Z " fill="#CCCA9F" transform="translate(48,84)"/>
<path d="M0 0 C1.98 0.99 1.98 0.99 4 2 C4.33 1.34 4.66 0.68 5 0 C5.66 0.33 6.32 0.66 7 1 C6.34 3.31 5.68 5.62 5 8 C4.360625 7.505 3.72125 7.01 3.0625 6.5 C1.29025661 4.90197138 1.29025661 4.90197138 0 5 C0 3.35 0 1.7 0 0 Z " fill="#313B47" transform="translate(42,83)"/>
<path d="M0 0 C0.8353125 0.556875 0.8353125 0.556875 1.6875 1.125 C1.6875 2.115 1.6875 3.105 1.6875 4.125 C-0.2925 4.455 -2.2725 4.785 -4.3125 5.125 C-3.9825 4.135 -3.6525 3.145 -3.3125 2.125 C-4.6325 1.795 -5.9525 1.465 -7.3125 1.125 C-2.88173077 -1.09038462 -2.88173077 -1.09038462 0 0 Z " fill="#999774" transform="translate(75.3125,52.875)"/>
<path d="M0 0 C0.99 0 1.98 0 3 0 C2 7.42857143 2 7.42857143 1 11 C1.66 11.33 2.32 11.66 3 12 C1.68 11.67 0.36 11.34 -1 11 C-0.67 7.37 -0.34 3.74 0 0 Z " fill="#D4C983" transform="translate(23,84)"/>
<path d="M0 0 C1.65 0 3.3 0 5 0 C3.68 0.33 2.36 0.66 1 1 C1 1.66 1 2.32 1 3 C1.99 3 2.98 3 4 3 C3.67 4.65 3.34 6.3 3 8 C1.35 8 -0.3 8 -2 8 C-2 7.34 -2 6.68 -2 6 C-0.68 6 0.64 6 2 6 C2 5.34 2 4.68 2 4 C1.01 4 0.02 4 -1 4 C-0.67 2.68 -0.34 1.36 0 0 Z " fill="#263140" transform="translate(99,83)"/>
<path d="M0 0 C0 3.73838874 -0.88994615 4.32222769 -3.375 7 C-5.48740728 9.294961 -7.26130597 11.39195896 -9 14 C-9.33 13.01 -9.66 12.02 -10 11 C-8.671875 9.0625 -8.671875 9.0625 -6.75 7 C-6.12609375 6.319375 -5.5021875 5.63875 -4.859375 4.9375 C-3.25931787 3.27021358 -1.64407493 1.6237777 0 0 Z " fill="#1B324F" transform="translate(89,21)"/>
<path d="M0 0 C1.98 0 3.96 0 6 0 C4.68 0.33 3.36 0.66 2 1 C2 1.66 2 2.32 2 3 C2.99 3.33 3.98 3.66 5 4 C3.68 4 2.36 4 1 4 C1 4.66 1 5.32 1 6 C1.99 6 2.98 6 4 6 C4 6.66 4 7.32 4 8 C2.35 8 0.7 8 -1 8 C-0.67 5.36 -0.34 2.72 0 0 Z " fill="#283240" transform="translate(57,83)"/>
<path d="M0 0 C0.99 0 1.98 0 3 0 C2.67 2.64 2.34 5.28 2 8 C1.01 8.33 0.02 8.66 -1 9 C-1 8.34 -1 7.68 -1 7 C-1.99 6.67 -2.98 6.34 -4 6 C-3.34 5.67 -2.68 5.34 -2 5 C-1.27840576 3.35636866 -0.60648579 1.68949614 0 0 Z " fill="#D6D094" transform="translate(64,53)"/>
<path d="M0 0 C1.98 0 3.96 0 6 0 C6 1.32 6 2.64 6 4 C4.68 4 3.36 4 2 4 C1.67 4.66 1.34 5.32 1 6 C0.67 4.02 0.34 2.04 0 0 Z " fill="#FEF9BF" transform="translate(48,78)"/>
<path d="M0 0 C1.32 0.33 2.64 0.66 4 1 C4 1.66 4 2.32 4 3 C4.66 3 5.32 3 6 3 C6.33 2.34 6.66 1.68 7 1 C7 2.32 7 3.64 7 5 C4.69 5 2.38 5 0 5 C0 3.35 0 1.7 0 0 Z " fill="#1D2A41" transform="translate(65,72)"/>
<path d="M0 0 C0.99 0 1.98 0 3 0 C2.67 2.97 2.34 5.94 2 9 C1.01 8.34 0.02 7.68 -1 7 C-1.25 3.9375 -1.25 3.9375 -1 1 C-0.67 0.67 -0.34 0.34 0 0 Z " fill="#2F4257" transform="translate(66,60)"/>
<path d="M0 0 C4.77609498 1.64178265 8.79382904 4.26546702 13 7 C11.02 7.99 11.02 7.99 9 9 C7.87105124 8.06725891 6.74699124 7.12859878 5.625 6.1875 C4.99851562 5.66542969 4.37203125 5.14335938 3.7265625 4.60546875 C2 3 2 3 0 0 Z " fill="#1A314F" transform="translate(44,27)"/>
<path d="M0 0 C1.32 0 2.64 0 4 0 C6 3 6 3 5.625 5.1875 C5.41875 5.785625 5.2125 6.38375 5 7 C4.01 7 3.02 7 2 7 C1.34 4.69 0.68 2.38 0 0 Z " fill="#DAD695" transform="translate(74,21)"/>
<path d="M0 0 C0.66 0.33 1.32 0.66 2 1 C2 1.66 2 2.32 2 3 C-1.3 4.32 -4.6 5.64 -8 7 C-7.67 5.68 -7.34 4.36 -7 3 C-3.5625 1.1875 -3.5625 1.1875 0 0 Z " fill="#1D273F" transform="translate(41,18)"/>
<path d="M0 0 C1.32 0 2.64 0 4 0 C4 1.32 4 2.64 4 4 C5.98 4 7.96 4 10 4 C10 4.33 10 4.66 10 5 C7.03 5 4.06 5 1 5 C0.67 3.35 0.34 1.7 0 0 Z " fill="#BFAE76" transform="translate(18,78)"/>
<path d="M0 0 C1.98 0.66 3.96 1.32 6 2 C6 2.33 6 2.66 6 3 C4.02 3.66 2.04 4.32 0 5 C0 5.99 0 6.98 0 8 C-2.31 7.67 -4.62 7.34 -7 7 C-6.01 6.34 -5.02 5.68 -4 5 C-2.22165019 3.35844633 -1.08682115 2.17364229 0 0 Z " fill="#223146" transform="translate(96,49)"/>
<path d="M0 0 C2.64 0 5.28 0 8 0 C8 0.99 8 1.98 8 3 C5.6875 3.625 5.6875 3.625 3 4 C2.01 3.34 1.02 2.68 0 2 C0 1.34 0 0.68 0 0 Z " fill="#26374F" transform="translate(47,47)"/>
<path d="M0 0 C4.54805635 -0.17835515 7.8794254 0.00214565 12 2 C12 2.33 12 2.66 12 3 C10.824375 2.9690625 10.824375 2.9690625 9.625 2.9375 C7.01885039 2.81315937 7.01885039 2.81315937 5 4 C2.375 2.625 2.375 2.625 0 1 C0 0.67 0 0.34 0 0 Z " fill="#A79368" transform="translate(71,12)"/>
<path d="M0 0 C0 0.33 0 0.66 0 1 C-6.52307692 0.38461538 -6.52307692 0.38461538 -8.9375 -1.5625 C-9.288125 -2.036875 -9.63875 -2.51125 -10 -3 C-5.70074574 -4.9842712 -3.45182258 -2.66731745 0 0 Z " fill="#C0AF76" transform="translate(59,105)"/>
<path d="M0 0 C2.0625 0.4375 2.0625 0.4375 4 1 C3.01 1 2.02 1 1 1 C1 2.32 1 3.64 1 5 C1.66 5.33 2.32 5.66 3 6 C3 6.66 3 7.32 3 8 C1.35 8 -0.3 8 -2 8 C-1.125 1.125 -1.125 1.125 0 0 Z " fill="#303742" transform="translate(116,83)"/>
<path d="M0 0 C1.2065625 0.0309375 1.2065625 0.0309375 2.4375 0.0625 C1.1175 0.3925 -0.2025 0.7225 -1.5625 1.0625 C-1.5625 1.7225 -1.5625 2.3825 -1.5625 3.0625 C-0.2425 3.3925 1.0775 3.7225 2.4375 4.0625 C1.1175 4.0625 -0.2025 4.0625 -1.5625 4.0625 C-1.8925 5.3825 -2.2225 6.7025 -2.5625 8.0625 C-3.2225 8.0625 -3.8825 8.0625 -4.5625 8.0625 C-3.54737544 0.08652135 -3.54737544 0.08652135 0 0 Z " fill="#3B4448" transform="translate(111.5625,82.9375)"/>
<path d="M0 0 C0.99 0 1.98 0 3 0 C3.625 1.8125 3.625 1.8125 4 4 C3.01 5.485 3.01 5.485 2 7 C0.68 6.67 -0.64 6.34 -2 6 C-1.34 4.02 -0.68 2.04 0 0 Z " fill="#E5E1A0" transform="translate(76,63)"/>
<path d="M0 0 C0 0.99 0 1.98 0 3 C-6.0546875 3.1953125 -6.0546875 3.1953125 -8 3 C-8.66 2.34 -9.32 1.68 -10 1 C-6.78548731 -0.60725635 -3.56387464 -0.05748185 0 0 Z " fill="#87725A" transform="translate(55,44)"/>
<path d="M0 0 C0.66 0 1.32 0 2 0 C2.33 2.64 2.66 5.28 3 8 C1.68 7.67 0.36 7.34 -1 7 C-0.67 4.69 -0.34 2.38 0 0 Z " fill="#2B4058" transform="translate(66,23)"/>
<path d="M0 0 C0.99 0 1.98 0 3 0 C3.33 2.31 3.66 4.62 4 7 C3.01 6.67 2.02 6.34 1 6 C-0.1875 3.4375 -0.1875 3.4375 -1 1 C-0.67 0.67 -0.34 0.34 0 0 Z " fill="#142139" transform="translate(56,18)"/>
<path d="M0 0 C4.66666667 2.33333333 4.66666667 2.33333333 6 5 C3.75 5.25 3.75 5.25 1 5 C-1.3125 3 -1.3125 3 -3 1 C-2.01 0.67 -1.02 0.34 0 0 Z " fill="#E8DF90" transform="translate(47,97)"/>
<path d="M0 0 C1.24546405 2.49092811 0.7767578 3.41080733 0 6 C-1.65 5.67 -3.3 5.34 -5 5 C-4.67 3.68 -4.34 2.36 -4 1 C-2.68 0.67 -1.36 0.34 0 0 Z " fill="#AF9966" transform="translate(76,90)"/>
<path d="M0 0 C2.31 0.33 4.62 0.66 7 1 C3.80009492 3.74277578 0.99500618 5.6302836 -3 7 C-1.68 5.35 -0.36 3.7 1 2 C0.67 1.34 0.34 0.68 0 0 Z " fill="#22364F" transform="translate(48,55)"/>
<path d="M0 0 C2.875 -0.1875 2.875 -0.1875 6 0 C6.66 0.99 7.32 1.98 8 3 C5.03 3 2.06 3 -1 3 C-0.67 2.01 -0.34 1.02 0 0 Z " fill="#1D2B43" transform="translate(85,41)"/>
<path d="M0 0 C3.1875 0.875 3.1875 0.875 6 2 C6 2.99 6 3.98 6 5 C3.03 4.01 0.06 3.02 -3 2 C-2.01 1.34 -1.02 0.68 0 0 Z " fill="#A89A6F" transform="translate(57,38)"/>
<path d="M0 0 C1.98 0 3.96 0 6 0 C6.33 0.99 6.66 1.98 7 3 C4.36 3 1.72 3 -1 3 C-0.67 2.01 -0.34 1.02 0 0 Z " fill="#1E304A" transform="translate(48,41)"/>
<path d="M0 0 C-1.70828921 2.10633718 -2.52148416 2.93801608 -5.26171875 3.29296875 C-6.06222656 3.25816406 -6.86273438 3.22335938 -7.6875 3.1875 C-8.89986328 3.14689453 -8.89986328 3.14689453 -10.13671875 3.10546875 C-11.05904297 3.05326172 -11.05904297 3.05326172 -12 3 C-8.40198016 -0.59801984 -4.84291279 -0.09137571 0 0 Z " fill="#B6A370" transform="translate(64,14)"/>
<path d="M0 0 C0 1.98 0 3.96 0 6 C-1.32 6 -2.64 6 -4 6 C-4 4.35 -4 2.7 -4 1 C-1 0 -1 0 0 0 Z " fill="#C6B274" transform="translate(62,90)"/>
<path d="M0 0 C0.66 0 1.32 0 2 0 C2.66 2.31 3.32 4.62 4 7 C1 7 1 7 -1 6 C-0.67 4.02 -0.34 2.04 0 0 Z " fill="#464E4E" transform="translate(39,83)"/>
<path d="M0 0 C0.99 0 1.98 0 3 0 C3.33 1.98 3.66 3.96 4 6 C3.01 6.66 2.02 7.32 1 8 C0.67 5.36 0.34 2.72 0 0 Z " fill="#1F3149" transform="translate(71,60)"/>
<path d="M0 0 C0.33 0.66 0.66 1.32 1 2 C0.34 2.66 -0.32 3.32 -1 4 C-1 1 -1 1 0 0 Z M-9 9 C-8.34 9.33 -7.68 9.66 -7 10 C-7.33 10.99 -7.66 11.98 -8 13 C-8.66 13 -9.32 13 -10 13 C-9.67 11.68 -9.34 10.36 -9 9 Z " fill="#19263C" transform="translate(58,58)"/>
<path d="M0 0 C0 0.66 0 1.32 0 2 C-3.375 2.125 -3.375 2.125 -7 2 C-7.66 1.34 -8.32 0.68 -9 0 C-5.93109813 -1.53445094 -3.29905734 -0.54984289 0 0 Z " fill="#90775A" transform="translate(94,45)"/>
<path d="M0 0 C0.66 0 1.32 0 2 0 C2.125 3.375 2.125 3.375 2 7 C1.34 7.66 0.68 8.32 0 9 C-0.87890625 2.84765625 -0.87890625 2.84765625 -1 1 C-0.67 0.67 -0.34 0.34 0 0 Z " fill="#F9F3AC" transform="translate(69,22)"/>
<path d="M0 0 C0.33 0.66 0.66 1.32 1 2 C-2.465 3.485 -2.465 3.485 -6 5 C-6 4.34 -6 3.68 -6 3 C-6.99 2.67 -7.98 2.34 -9 2 C-6.03 1.34 -3.06 0.68 0 0 Z " fill="#E8DE8D" transform="translate(50,19)"/>
<path d="M0 0 C1.32 0 2.64 0 4 0 C4 1.65 4 3.3 4 5 C2.68 5 1.36 5 0 5 C0 3.35 0 1.7 0 0 Z " fill="#BBA671" transform="translate(114,91)"/>
<path d="M0 0 C2.64 0 5.28 0 8 0 C8 0.99 8 1.98 8 3 C5.36 2.67 2.72 2.34 0 2 C0 1.34 0 0.68 0 0 Z " fill="#CABC7E" transform="translate(48,53)"/>
<path d="M0 0 C1.5625 1.1875 1.5625 1.1875 3 3 C2.6875 5.6875 2.6875 5.6875 2 8 C1.01 8 0.02 8 -1 8 C-0.67 5.36 -0.34 2.72 0 0 Z " fill="#1A2E4A" transform="translate(72,23)"/>
<path d="M0 0 C0.33 0.99 0.66 1.98 1 3 C1.66 3 2.32 3 3 3 C3 4.65 3 6.3 3 8 C1.68 7.67 0.36 7.34 -1 7 C-0.67 4.69 -0.34 2.38 0 0 Z " fill="#F6EE9C" transform="translate(55,88)"/>
<path d="M0 0 C0.66 0 1.32 0 2 0 C2 2.64 2 5.28 2 8 C1.01 8 0.02 8 -1 8 C-0.67 5.36 -0.34 2.72 0 0 Z " fill="#DECD85" transform="translate(112,88)"/>
<path d="M0 0 C2.64 0 5.28 0 8 0 C8 0.66 8 1.32 8 2 C5.36 2.33 2.72 2.66 0 3 C0 2.01 0 1.02 0 0 Z " fill="#CEBF7F" transform="translate(84,53)"/>
<path d="M0 0 C0.33 0.99 0.66 1.98 1 3 C1.99 3.33 2.98 3.66 4 4 C4 4.99 4 5.98 4 7 C2.68 6.67 1.36 6.34 0 6 C-0.38218767 4.34385343 -0.71395102 2.67542976 -1 1 C-0.67 0.67 -0.34 0.34 0 0 Z " fill="#CECA8D" transform="translate(63,32)"/>
<path d="M0 0 C2.01822917 0.06510417 4.03645833 0.13020833 6.0546875 0.1953125 C4.9921875 1.7578125 4.9921875 1.7578125 3.0546875 3.1953125 C-0.6328125 2.8828125 -0.6328125 2.8828125 -3.9453125 2.1953125 C-1.9453125 0.1953125 -1.9453125 0.1953125 0 0 Z " fill="#A18E66" transform="translate(62.9453125,11.8046875)"/>
<path d="M0 0 C0.66 0.33 1.32 0.66 2 1 C1.1875 2.9375 1.1875 2.9375 0 5 C-0.99 5.33 -1.98 5.66 -3 6 C-3.99 5.34 -4.98 4.68 -6 4 C-4.02 2.68 -2.04 1.36 0 0 Z " fill="#2B3445" transform="translate(83,99)"/>
<path d="M0 0 C0.66 0 1.32 0 2 0 C2 1.32 2 2.64 2 4 C1.34 4 0.68 4 0 4 C0 6.31 0 8.62 0 11 C-0.33 11 -0.66 11 -1 11 C-1.02688151 9.35425434 -1.04634123 7.70838587 -1.0625 6.0625 C-1.07410156 5.14597656 -1.08570312 4.22945313 -1.09765625 3.28515625 C-1 1 -1 1 0 0 Z " fill="#C0AC74" transform="translate(19,85)"/>
<path d="M0 0 C3.63 0.33 7.26 0.66 11 1 C11 1.33 11 1.66 11 2 C8.36 2 5.72 2 3 2 C2.67 2.66 2.34 3.32 2 4 C1.34 3.67 0.68 3.34 0 3 C0 2.01 0 1.02 0 0 Z " fill="#A9986C" transform="translate(45,51)"/>
<path d="M0 0 C2.31 0.33 4.62 0.66 7 1 C5.75 2.5625 5.75 2.5625 4 4 C1.8125 3.6875 1.8125 3.6875 0 3 C0 2.01 0 1.02 0 0 Z " fill="#1C314D" transform="translate(85,47)"/>
<path d="M0 0 C0.99 0.33 1.98 0.66 3 1 C3 2.32 3 3.64 3 5 C1.35 5 -0.3 5 -2 5 C-1.34 3.35 -0.68 1.7 0 0 Z " fill="#F2EFBB" transform="translate(77,27)"/>
<path d="M0 0 C3.37503669 1.1858237 5.64722731 2.27573689 8 5 C5.69 4.67 3.38 4.34 1 4 C0.67 2.68 0.34 1.36 0 0 Z " fill="#293244" transform="translate(54,99)"/>
<path d="M0 0 C1.65 0 3.3 0 5 0 C3.68 0.33 2.36 0.66 1 1 C1 2.65 1 4.3 1 6 C0.01 5.67 -0.98 5.34 -2 5 C-2 4.01 -2 3.02 -2 2 C-1.34 2 -0.68 2 0 2 C0 1.34 0 0.68 0 0 Z " fill="#7B7B66" transform="translate(67,99)"/>
<path d="M0 0 C1.32 0 2.64 0 4 0 C3.67 1.65 3.34 3.3 3 5 C2.01 4.67 1.02 4.34 0 4 C0 2.68 0 1.36 0 0 Z " fill="#D5C27F" transform="translate(113,78)"/>
<path d="M0 0 C1.65 0 3.3 0 5 0 C4.67 1.32 4.34 2.64 4 4 C2.68 4 1.36 4 0 4 C0 2.68 0 1.36 0 0 Z " fill="#E6D689" transform="translate(22,78)"/>
<path d="M0 0 C1.32 0.33 2.64 0.66 4 1 C2.35 2.65 0.7 4.3 -1 6 C-1.33 5.01 -1.66 4.02 -2 3 C-1.34 3 -0.68 3 0 3 C0 2.01 0 1.02 0 0 Z " fill="#F4EB9B" transform="translate(62,21)"/>
</svg>
